<?xml version="1.0" encoding="utf-8"?>
<!-- Generator: Adobe Illustrator 19.1.0, SVG Export Plug-In . SVG Version: 6.00 Build 0)  -->
<svg version="1.1" id="Layer_1" xmlns="http://www.w3.org/2000/svg" xmlns:xlink="http://www.w3.org/1999/xlink" x="0px" y="0px"
	 viewBox="0 0 109 23" style="enable-background:new 0 0 109 23;" xml:space="preserve">
<style type="text/css">
	.st0{clip-path:url(#SVGID_2_);}
	.st1{clip-path:url(#SVGID_4_);fill:#FFFFFF;}
</style>
<g>
	<g>
		<defs>
			<path id="SVGID_1_" d="M101.4,10.6c1.8,0,3.1,0.9,3.5,2.6h-7.1C98.2,11.5,99.5,10.6,101.4,10.6z M109,14.8c0-4.7-3.1-8.1-7.6-8.1
				c-4.5,0-7.7,3.5-7.7,8.2c0,4.6,3.3,8.1,7.9,8.1c3,0,5.5-1.5,6.8-3.8l-3.3-2.1c-0.7,1.1-1.9,1.9-3.4,1.9c-1.8,0-3.2-1.1-3.8-2.6
				h11C108.9,15.9,109,15.4,109,14.8z M86.9,3.8h-2.3l-4,5.1V11h2.2v6.6c0,3,2.1,5.1,5,5.1h3.9v-4h-3c-1.1,0-1.8-0.7-1.8-1.8V11h4.8
				V7h-4.8V3.8z M67.4,14.8c0-2.3,1.6-4,3.9-4s3.9,1.8,3.9,4s-1.6,4-3.9,4S67.4,17.1,67.4,14.8z M63.3,14.8c0,4.6,3.4,8.2,8,8.2
				c4.6,0,8-3.6,8-8.2c0-4.6-3.4-8.2-8-8.2C66.7,6.7,63.3,10.3,63.3,14.8z M54.1,6.7c-1.8,0-3.3,0.7-4.4,1.7c-1-1.1-2.4-1.7-4.1-1.7
				c-1.4,0-2.6,0.4-3.6,1.2V7h-4v15.6h4.1v-9.3c0-1.4,1-2.6,2.5-2.6c1.5,0,2.5,1.2,2.5,2.6v9.3h4.1v-9.3c0-1.4,1-2.6,2.5-2.6
				c1.5,0,2.5,1.2,2.5,2.6v9.3h4.1V12.5C60.3,9.1,57.7,6.7,54.1,6.7z M27.3,10.6c1.8,0,3.1,0.9,3.5,2.6h-7.1
				C24.1,11.5,25.4,10.6,27.3,10.6z M34.9,14.8c0-4.7-3.1-8.1-7.6-8.1c-4.5,0-7.7,3.5-7.7,8.2c0,4.6,3.3,8.1,7.9,8.1
				c3,0,5.5-1.5,6.8-3.8L31,17.1c-0.7,1.1-1.9,1.9-3.4,1.9c-1.8,0-3.2-1.1-3.8-2.6h11C34.8,15.9,34.9,15.4,34.9,14.8z M4.3,4.3h5.2
				c2.1,0,3.6,1.5,3.6,3.6c0,2.1-1.5,3.6-3.6,3.6H4.3V4.3z M12.7,22.7h5.1l-4.7-7.5c2.6-1.2,4.3-3.9,4.3-7.1c0-4.6-3.3-8-8-8H0v22.7
				h4.3v-6.7h4.1L12.7,22.7z"/>
		</defs>
		<clipPath id="SVGID_2_">
			<use xlink:href="#SVGID_1_"  style="overflow:visible;"/>
		</clipPath>
		<g class="st0">
			<defs>
				<rect id="SVGID_3_" x="-808" y="-156" width="1725" height="3849"/>
			</defs>
			<clipPath id="SVGID_4_">
				<use xlink:href="#SVGID_3_"  style="overflow:visible;"/>
			</clipPath>
			<rect x="-5" y="-5" class="st1" width="119" height="33"/>
		</g>
	</g>
</g>
</svg>
