<svg xmlns="http://www.w3.org/2000/svg" width="24" height="24"><rect id="backgroundrect" width="100%" height="100%" x="0" y="0" fill="none" stroke="none"/><g class="currentLayer" style=""><title>Layer 1</title><path fill="#f0ffff" fill-opacity="1" stroke="none" stroke-opacity="1" stroke-width="1" stroke-dasharray="none" stroke-linejoin="miter" stroke-linecap="butt" stroke-dashoffset="" fill-rule="nonzero" opacity="1" marker-start="" marker-mid="" marker-end="" d="M2.4285717010498047,11.64285659790039 C2.4285717010498047,6.946724001215308 6.45619601044207,3.1428565979003906 11.428571701049805,3.1428565979003906 C16.40094739165754,3.1428565979003906 20.428571701049805,6.946724001215308 20.428571701049805,11.64285659790039 C20.428571701049805,16.338989194585473 16.40094739165754,20.14285659790039 11.428571701049805,20.14285659790039 C6.45619601044207,20.14285659790039 2.4285717010498047,16.338989194585473 2.4285717010498047,11.64285659790039 z" id="svg_3" class=""/><path d="M12 0c-6.627 0-12 5.373-12 12s5.373 12 12 12 12-5.373 12-12-5.373-12-12-12zm6.066 9.645c.183 4.04-2.83 8.544-8.164 8.544-1.622 0-3.131-.476-4.402-1.291 1.524.18 3.045-.244 4.252-1.189-1.256-.023-2.317-.854-2.684-1.995.451.086.895.061 1.298-.049-1.381-.278-2.335-1.522-2.304-2.853.388.215.83.344 1.301.359-1.279-.855-1.641-2.544-.889-3.835 1.416 1.738 3.533 2.881 5.92 3.001-.419-1.796.944-3.527 2.799-3.527.825 0 1.572.349 2.096.907.654-.128 1.27-.368 1.824-.697-.215.671-.67 1.233-1.263 1.589.581-.07 1.135-.224 1.649-.453-.384.578-.87 1.084-1.433 1.489z" id="svg_1" class="selected" fill="#151515" fill-opacity="1"/></g></svg>